<?xml version="1.0" encoding="utf-8"?>
<!-- Generator: Adobe Illustrator 26.0.1, SVG Export Plug-In . SVG Version: 6.00 Build 0)  -->
<svg version="1.1" id="Layer_1" xmlns="http://www.w3.org/2000/svg" xmlns:xlink="http://www.w3.org/1999/xlink" x="0px" y="0px"
	 viewBox="0 0 311.81 113.39" style="enable-background:new 0 0 311.81 113.39;" xml:space="preserve">
<style type="text/css">
	.st0{fill:#7A549E;}
</style>
<g>
	<path class="st0" d="M34.19,45.49c0.95,0.27,1.19,1.51,0.46,2.17c-0.44,0.39-0.88,0.77-1.34,1.13c-0.48,0.37-0.58,0.62-0.41,1.25
		c0.21,0.78,0.2,1.61-0.06,2.37c-0.6,1.8-1.55,3.49-2.03,5.31c-2.13,8.07,1.23,17.64,9.15,21.15c3.61,1.59,7.31,1.57,11.05,0.74
		c3.22-0.72,6.32-1.77,8.99-3.81c3.49-2.65,4.46-6.23,4.07-10.45c-0.7-7.66-4.67-13.3-10.55-17.9c-7.07-5.53-15.17-8.75-23.85-10.59
		c-4.5-0.96-9.08-1.54-13.63-2.24c-1.38-0.21-2.79-0.2-4.18-0.4c-1.21-0.17-1.79-0.88-1.74-1.88c0.05-0.86,0.78-1.54,1.97-1.56
		c1.77-0.03,3.56-0.04,5.33,0.12c5.73,0.51,11.36,1.56,16.89,3.13c10.21,2.91,19.34,7.71,26.46,15.77c4,4.53,5.92,9.96,6.34,15.99
		c0.2,2.93,0.03,5.72-1.36,8.36c-1.48,2.82-3.87,4.67-6.6,6.08c-2.77,1.43-5.69,2.32-8.82,2.79c-2.78,0.42-5.52,0.64-8.23,0.13
		c-4.56-0.85-8.35-3.12-11.15-6.94c-2.18-2.98-3.3-6.34-3.81-9.95c-0.03-0.24-0.07-0.47-0.12-0.7c-0.01-0.06-0.09-0.1-0.25-0.28
		c-0.2,0.28-0.43,0.51-0.55,0.78c-1.89,4.02-4.41,7.62-7.44,10.85c-1.48,1.58-3.13,2.94-5.23,3.67c-4.01,1.41-7.33-0.71-7.51-4.96
		c-0.16-3.99,0.84-7.76,2.89-11.17c4-6.67,9.64-11.67,16.37-15.44c2.28-1.28,4.73-2.27,7.15-3.28
		C33.16,45.43,33.68,45.34,34.19,45.49z M10.04,73.8c0.03,0.25,0.03,0.67,0.13,1.06c0.43,1.72,1.59,2.33,3.26,1.7
		c0.54-0.2,1.07-0.46,1.57-0.75c2.23-1.31,3.88-3.22,5.36-5.29c3.89-5.45,7-11.25,7.97-17.99c0.04-0.25,0-0.5-0.04-0.76
		c-0.03-0.21-0.24-0.34-0.44-0.29c-0.22,0.06-0.44,0.12-0.63,0.23c-5.7,3.15-10.29,7.52-13.94,12.89
		C11.42,67.32,10.22,70.31,10.04,73.8z"/>
	<path class="st0" d="M263.39,65.11c-0.87,1.59-1.61,3.08-2.49,4.48c-2.32,3.68-4.76,7.26-8.42,9.8c-1.93,1.34-4.01,1.84-6.31,1.39
		c-1.48-0.29-2.97-2.05-3.28-3.97c-0.57-3.46,0.19-6.74,1.51-9.9c1.83-4.38,4.89-7.86,8.28-11.1c4.36-4.17,9.38-7.29,14.9-9.62
		c1.22-0.51,2.49-0.84,3.81-0.67c0.16,0.02,0.3,0.14,0.35,0.29c0.4,1.07-0.02,1.81-0.99,2.42c-0.83,0.53-1.65,0.87-1.2,2.39
		c0.32,1.08-0.41,2.56-0.9,3.77c-1.07,2.62-1.87,5.27-1.85,8.14c0.03,4.42,1.24,8.53,4.01,11.92c3.15,3.86,7.37,5.93,12.46,5.71
		c4.62-0.2,8.97-1.43,12.84-4.03c3.08-2.07,4.72-4.95,4.69-8.72c-0.06-6.99-2.82-12.78-7.86-17.54c-4.17-3.93-8.97-6.91-14.23-9.15
		c-5.27-2.24-10.75-3.8-16.4-4.71c-4.21-0.68-8.46-1.09-12.69-1.63c-0.59-0.08-1.23-0.08-1.79-0.32c-0.96-0.4-1.42-1.58-0.76-2.46
		c0.39-0.52,1.01-0.64,1.62-0.71c1.35-0.15,2.7-0.2,4.05-0.1c5.41,0.39,10.76,1.29,16.01,2.65c6.45,1.66,12.62,4,18.25,7.61
		c4.33,2.78,8.38,5.91,11.47,10.09c2.95,3.98,4.75,8.45,5.08,13.43c0.13,1.87,0.26,3.77,0.08,5.63c-0.39,4.02-2.79,6.8-6.02,8.95
		c-3,1.99-6.31,3.16-9.87,3.75c-2.68,0.44-5.35,0.7-8.04,0.38c-4.98-0.58-8.95-2.95-11.98-6.92c-2.26-2.96-3.44-6.34-3.92-10
		c-0.03-0.24-0.07-0.47-0.13-0.7C263.63,65.52,263.53,65.37,263.39,65.11z M246.68,73.38c-0.04,3.12,1.5,4.15,4.12,2.88
		c0.76-0.37,1.56-0.79,2.13-1.39c1.62-1.69,3.32-3.36,4.66-5.27c3.64-5.18,6.5-10.74,7.37-17.14c0.02-0.16,0.01-0.33-0.01-0.5
		c-0.04-0.32-0.34-0.53-0.65-0.47c-0.16,0.03-0.32,0.08-0.45,0.15c-5.23,3.04-9.7,6.92-13.23,11.86
		C248.45,66.54,246.87,69.77,246.68,73.38z"/>
	<path class="st0" d="M111.21,44.79c0.05,0.03,0.09,0.07,0.09,0.12c0.03,0.52-0.35,1.24-0.03,1.72c0.3,0.44,1.15,0.49,1.61,0.58
		c5.94,1.2,11.59,3.16,16.61,6.64c0.95,0.65,1.86,1.42,2.6,2.29c2.77,3.3,2.12,7.62-1.46,10.03c-2.65,1.78-5.64,2.78-8.72,3.43
		c-3.3,0.69-6.66,1.14-9.99,1.66c-0.6,0.09-0.95,0.3-0.94,0.95c0.11,5.26,0.24,10.52,0.31,15.78c0.01,0.57-0.12,1.49-0.44,1.63
		c-0.63,0.27-1.34,0.19-2.01,0.18c-0.08,0-0.16,0-0.23-0.03c-0.19-0.07-0.23-0.3-0.27-0.47c-0.05-0.2-0.09-0.41-0.09-0.61
		c-0.04-3.25-0.06-6.5-0.07-9.74c-0.01-2.05,0.01-4.1,0.01-6.16c0-1.05-0.36-1.41-1.42-1.4c-0.51,0.01-1.04,0.17-1.53,0.07
		c-0.43-0.08-1.24-0.19-1.48-0.61c-0.05-0.09-0.07-0.19-0.09-0.28c-0.11-0.61-0.1-1.22-0.1-1.84c0-1.06,1.04-0.77,1.74-0.62
		c0.58,0.13,1.15,0.27,1.72,0.42c0.83,0.22,1.23,0,1.22-0.91c-0.06-5.37-0.09-10.74-0.14-16.11c0-0.31-0.03-0.62-0.02-0.92
		c0.05-1.32-0.09-1.47-1.45-1.66c-0.94-0.14-1.9-0.26-2.82-0.5c-1.24-0.32-1.83-2.1-1-3.06c0.16-0.19,0.69-0.17,1.01-0.09
		c1.05,0.29,2.07,0.69,3.13,0.97c0.3,0.08,0.93-0.03,0.98-0.18c0.22-0.74,0.68-1.26,1.46-1.37
		C109.68,44.65,110.87,44.59,111.21,44.79z M111.48,49.43c-0.18-0.05-0.37,0.05-0.43,0.23c-0.05,0.14-0.08,0.23-0.08,0.31
		c-0.02,1.73-0.03,3.46-0.03,5.2c0,4.03,0,8.07,0.03,12.1c0.01,1.34,0.2,1.41,1.51,1.38c3.48-0.09,6.87-0.75,10.13-1.88
		c2.17-0.75,4.33-1.71,6.28-2.92c1.92-1.18,3.01-3.27,1.18-5.8c-0.73-1-1.62-1.96-2.62-2.68c-3.23-2.32-6.92-3.65-10.75-4.63
		C114.99,50.31,113.27,49.88,111.48,49.43z"/>
	<path class="st0" d="M208.56,59.55c0.4,0.2,0.14,0.85,0.06,1.16c-0.15,0.66-0.23,1.33-0.46,1.97c-1.49,4.28-3.63,8.15-7.12,11.18
		c-2.35,2.04-5.04,3.05-8.13,3.07c-2.18,0.02-4.28-0.31-6.21-1.41c-2.09-1.18-3.33-2.98-3.94-5.26c-1.29-4.83-0.31-9.44,1.49-13.91
		c1.68-4.19,4.16-7.84,7.95-10.46c2.75-1.9,5.72-2.87,9.1-2.16c1.75,0.36,3.19,1.16,3.81,2.89c0.64,1.79,0.04,3.47-1.3,4.66
		c-1.54,1.36-3.28,2.54-5.04,3.61c-1.27,0.77-2.7,1.34-4.11,1.8c-2.3,0.75-4.67,1.31-6.99,2.03c-0.45,0.14-1.07,0.55-1.16,0.93
		c-0.69,3.01-1.22,6.05-0.13,9.08c1.27,3.55,4.16,5.25,7.95,4.83c3.87-0.42,6.67-2.54,8.75-5.63c1.62-2.4,2.98-4.96,4.47-7.45
		c0.15-0.25,0.33-0.49,0.5-0.73C208.17,59.61,208.38,59.46,208.56,59.55z M198.26,46.19c-0.28,0.01-0.56,0.07-0.84,0.11
		c-0.39,0.06-0.79,0.14-1.16,0.27c-4.18,1.53-6.64,4.78-8.5,8.61c-0.11,0.22-0.11,0.5-0.12,0.78c-0.01,0.15,0.11,0.28,0.26,0.29
		c0.27,0.02,0.54,0.05,0.79-0.01c3.69-0.84,7.18-2.23,10.38-4.23c1.05-0.65,1.95-1.6,2.79-2.52c0.68-0.74,0.19-2.68-0.69-2.89
		c-0.86-0.21-1.76-0.29-2.64-0.4C198.44,46.19,198.35,46.19,198.26,46.19z"/>
	<path class="st0" d="M80.29,79.26c-1.14-0.19-2.29-0.32-3.41-0.59c-1.19-0.29-1.6-1.56-0.8-2.47c0.75-0.87,1.61-1.65,2.48-2.4
		c0.09-0.08,0.23-0.12,0.37-0.14c0.34-0.05,0.64,0.27,0.56,0.61c-0.01,0.07-0.03,0.14-0.05,0.2c-0.24,0.73,0.2,0.88,0.76,1.01
		c2.14,0.5,4.23,0.1,6.28-0.43c2.57-0.67,4.95-1.76,6.8-3.78c2.62-2.87,1.51-6.29-2.06-7.51c-2.34-0.8-4.81-1.24-7.21-1.88
		c-2.47-0.66-4.94-1.32-7.38-2.06c-0.84-0.25-1.63-0.7-2.38-1.17c-1.49-0.92-2.05-2.31-1.89-4.03c0.18-1.94,1.06-3.54,2.46-4.82
		c3.98-3.62,8.68-5.69,13.98-6.45c0.12-0.02,0.31-0.03,0.43-0.03c0.95,0,1.88,0.06,2.37,1.06c0.6,1.22-0.82,2.99-2.06,2.93
		c-0.97-0.05-1.81-0.49-2.8-0.4c-1.08,0.1-2.1,0.42-3.13,0.72c-2.29,0.66-4.5,1.64-6.29,3.3c-1.31,1.21-2.09,2.67-1.85,4.52
		c0.11,0.81,0.52,1.36,1.36,1.59c3.48,0.94,6.97,1.86,10.43,2.87c2.26,0.66,4.52,1.34,6.7,2.21c4.32,1.73,4.36,6.03,2.56,9.16
		c-1.77,3.08-4.67,4.79-7.81,6.18C86.02,78.61,83.22,79.13,80.29,79.26z"/>
	<path class="st0" d="M158.86,59.45c0.01-0.01,0.02-0.02,0.03-0.03c0.04-0.06,0.05-0.14,0.08-0.21c0.05-0.11,0.09-0.21,0.14-0.32
		c0.09-0.22,0.18-0.43,0.27-0.65c0.18-0.43,0.36-0.86,0.55-1.29c0.16-0.35,0.32-0.71,0.49-1.05c1.94-3.9,4.02-7.71,7.3-10.68
		c2.53-2.29,5.31-2.53,8.01-0.62c0.96,0.68,1.78,1.53,1.8,2.82c0.02,0.97-0.67,1.75-1.7,2.19c-0.93,0.4-1.45-0.1-2.02-0.7
		c-0.58-0.62-1.16-1.28-1.85-1.74c-1.18-0.79-2.09-0.79-3.04,0.25c-1.42,1.55-2.75,3.21-3.91,4.96c-2.53,3.82-4.5,7.96-6.08,12.24
		c-0.52,1.41-0.21,3.16-0.16,4.75c0.06,2.18,0.27,4.35,0.31,6.53c0.01,0.5-0.28,1.14-0.65,1.49c-0.67,0.64-1.6,0.41-1.9-0.46
		c-0.33-0.96-0.57-1.98-0.64-2.99c-0.15-2.11-0.17-4.23-0.23-6.35c-0.12-3.99-0.25-7.99-0.37-11.99c-0.09-3.1-0.21-6.21-0.24-9.31
		c0-0.43,0.28-1.11,0.61-1.24c0.38-0.15,0.8-0.2,1.21-0.22c0.29-0.01,0.82-0.1,1.01,0.18c0.14,0.21,0.2,0.55,0.21,0.79
		c0.08,2.96,0.1,5.93,0.18,8.89c0.03,0.96,0.09,1.93,0.16,2.89c0.02,0.3,0.04,0.61,0.07,0.91c0.01,0.15,0.02,0.3,0.03,0.45
		c0.01,0.08,0.01,0.15,0.02,0.23C158.55,59.28,158.72,59.57,158.86,59.45z"/>
	<path class="st0" d="M216.23,32.98c0.03-1.01,0.17-2.07,0.52-3.01c0.26-0.71,0.84-1.41,1.46-1.86c0.69-0.51,1.48-0.02,1.5,0.85
		c0.04,2.66,0.12,5.32,0.03,7.97c-0.19,5.02-0.53,10.03-0.74,15.05c-0.17,4.13-0.18,8.27-0.37,12.41c-0.16,3.45,0.38,6.74,1.79,9.88
		c0.42,0.93,0.18,1.42-0.74,1.82c-1.75,0.77-2.66,0.37-3.27-1.45c-0.98-2.89-0.79-5.87-0.79-8.84
		C215.61,60.88,216.05,39,216.23,32.98z"/>
	<path class="st0" d="M229.8,37.72c0.01-2.08,0.15-4.17,0.42-6.23c0.12-0.97,0.57-1.96,1.09-2.8c0.25-0.4,1.04-0.66,1.56-0.62
		c0.74,0.06,0.83,0.78,0.8,1.43c-0.2,4.74-0.45,9.48-0.59,14.22c-0.23,7.96-0.5,15.92-0.51,23.89c0,2.01,0.81,4.05,1.44,6.02
		c0.55,1.72,0.61,1.98-0.53,2.49c-1.58,0.71-2.58,0.42-3.14-1.09c-0.4-1.07-0.63-2.24-0.75-3.38
		C229.47,70.48,229.76,47.84,229.8,37.72z"/>
	<path class="st0" d="M143.74,56.32c0.23,4.5,0.42,9.01,0.73,13.51c0.16,2.28,0.53,4.54,0.83,6.81c0.14,1.02-0.43,1.45-1.29,1.62
		c-0.96,0.19-1.31-0.45-1.43-1.21c-0.32-2.16-0.72-4.32-0.85-6.5c-0.37-6.11-0.61-12.22-0.91-18.33c-0.11-2.35-0.24-4.71-0.35-7.06
		c-0.04-0.86,0.13-1.58,1.17-1.72c1.12-0.15,1.7,0.17,1.9,1.32c0.22,1.24,0.34,2.5,0.36,3.76C143.96,51.11,143.8,56.32,143.74,56.32
		z"/>
	<path class="st0" d="M301.1,33.08c0.03,0,0.05-0.01,0.07-0.03c0.32-0.34,0.64-0.71,0.78-1.1c0.8-2.24,1.52-4.52,2.27-6.78
		c0.01-0.02,0.1-0.01,0.15-0.01c0,2.29-0.01,4.58,0,6.87c0.01,1.27,0.12,1.35,1.4,1.01c0-2.92,0.01-5.85-0.02-8.79
		c0-0.2-0.16-0.43-0.35-0.5c-0.78-0.31-1.7,0.11-1.98,0.9c-0.68,1.9-1.32,3.81-1.98,5.71c-0.08,0.24-0.21,0.46-0.43,0.95
		c-0.27-0.65-0.46-1.03-0.59-1.43c-0.53-1.55-1.04-3.11-1.57-4.66c-0.52-1.52-0.82-1.88-2.28-1.51c-0.22,0.06-0.37,0.25-0.37,0.48
		c0,2.75,0.01,5.63-0.01,8.37c0,0.5,0.16,0.86,0.68,0.73c0.26-0.07,0.51-0.41,0.65-0.69c0.11-0.22,0.04-0.54,0.03-0.81
		c-0.06-2.31-0.11-4.63-0.17-6.94c0.03-0.01,0.07-0.02,0.1-0.03c0.13,0.38,0.25,0.76,0.38,1.14c0.66,2.01,1.29,4.03,2.02,6.02
		c0.15,0.4,0.5,0.75,0.84,1.07c0.02,0.02,0.04,0.03,0.07,0.03L301.1,33.08z"/>
	<path class="st0" d="M294.23,23.8c0.06,0,0.12,0.05,0.13,0.11c0.15,0.88-0.28,1.12-1,1.1c-2.3-0.04-1.92,0.13-1.97,2.07
		c-0.05,2.04-0.01,4.08-0.01,6.1c-1.41,0.22-1.49,0.15-1.5-1.1c-0.01-1.88,0-3.76-0.03-5.64c-0.02-1.33-0.11-1.39-1.41-1.42
		c-0.34-0.01-0.72,0.06-1.01-0.07c-0.25-0.11-0.14-1.14,0.09-1.14C289.74,23.79,291.96,23.8,294.23,23.8z"/>
	<path class="st0" d="M139.09,34.02c-0.52-0.47-1.06-1.41-0.91-1.97c0.17-0.65,1.02-1.18,1.68-1.6c0.25-0.16,0.92,0.01,1.19,0.25
		c0.8,0.74,1.56,1.53,2.2,2.41c0.27,0.37,0.68,0.95,0.23,1.34c-0.48,0.42-1.55,0.59-2.15,0.53
		C140.55,34.89,139.67,34.55,139.09,34.02z"/>
</g>
</svg>
