<?xml version="1.0" encoding="utf-8"?>
<!-- Generator: Adobe Illustrator 26.0.1, SVG Export Plug-In . SVG Version: 6.00 Build 0)  -->
<svg version="1.1" id="Layer_1" xmlns="http://www.w3.org/2000/svg" xmlns:xlink="http://www.w3.org/1999/xlink" x="0px" y="0px"
	 viewBox="0 0 726.43 728.89" style="enable-background:new 0 0 726.43 728.89;" xml:space="preserve">
<style type="text/css">
	.st0{clip-path:url(#XMLID_00000113345222055061346030000012524165896158507425_);fill:#FFFFFF;}
	.st1{clip-path:url(#XMLID_00000113345222055061346030000012524165896158507425_);fill:none;stroke:#FFFFFF;stroke-linejoin:round;}
</style>
<g>
	<g>
		<defs>
			<rect id="XMLID_00000035517245317988890650000017819995968362738086_" x="5.1" y="6.34" width="716.22" height="716.21"/>
		</defs>
		
			<use xlink:href="#XMLID_00000035517245317988890650000017819995968362738086_"  style="overflow:visible;fill-rule:evenodd;clip-rule:evenodd;fill:#231F20;"/>
		<clipPath id="XMLID_00000183951763537478310560000015425818336535600824_">
			<use xlink:href="#XMLID_00000035517245317988890650000017819995968362738086_"  style="overflow:visible;"/>
		</clipPath>
		<path style="clip-path:url(#XMLID_00000183951763537478310560000015425818336535600824_);fill:#FFFFFF;" d="M156.34,161.42
			c0-47.08,38.14-85.27,85.17-85.27c47.04,0,85.16,38.18,85.16,85.27c0,47.12-38.12,85.31-85.16,85.31
			C194.48,246.74,156.34,208.54,156.34,161.42z"/>
		<path style="clip-path:url(#XMLID_00000183951763537478310560000015425818336535600824_);fill:#FFFFFF;" d="M478.2,297.62
			l75.95-94.1c46.65-0.27,91.79,24.99,121.82,55.35l-103.48,156.8c-23.98-23.11-95.27-47.98-95.27-47.98
			C518.6,329.62,479.84,297.85,478.2,297.62"/>
		<path style="clip-path:url(#XMLID_00000183951763537478310560000015425818336535600824_);fill:#FFFFFF;" d="M470.03,292.52
			c-37.74-30.52-62.7,20.43-62.7,20.43c-29.5-18.65-72.73-31.59-103.29-33.69l116.23-153.62c77.21,20.59,113.01,38.27,125.64,73.55"
			/>
		<path style="clip-path:url(#XMLID_00000183951763537478310560000015425818336535600824_);fill:#FFFFFF;" d="M127.42,353.75
			c7.35-27.9,37.04-73.02,55.79-87.9c20.53-16.31,81.82-24.5,108.07,5.58c26.28,30.08,67.1,75.85,67.1,75.85
			c9.17,10.3,23.87,10.02,32.66-0.62l37.01-44.76c8.78-10.62,24.39-11.81,34.69-2.64l13.95,12.46c10.3,9.18,11.93,25.69,3.63,36.72
			l-73.2,97.22c-8.29,11.03-24.72,14.19-36.52,7.03l-91.64-55.52c-11.79-7.16-11.83-7.09-0.07,0.12l22.17,13.62
			c11.76,7.22,21.37,24.38,21.36,38.18l-0.1,166.28c0,13.79-10.49,20.88-23.27,15.74l-179.22-71.78
			c-12.79-5.13-21.66-20.48-19.73-34.12C100.11,525.21,121.42,376.48,127.42,353.75z"/>
		
			<polyline style="clip-path:url(#XMLID_00000183951763537478310560000015425818336535600824_);fill:none;stroke:#FFFFFF;stroke-linejoin:round;" points="
			297.97,725.6 297.97,630.69 122.52,547.75 122.52,729.14 		"/>
	</g>
</g>
</svg>
