<?xml version="1.0" encoding="utf-8"?>
<!-- Generator: Adobe Illustrator 26.0.1, SVG Export Plug-In . SVG Version: 6.00 Build 0)  -->
<svg version="1.1" id="Layer_1" xmlns="http://www.w3.org/2000/svg" xmlns:xlink="http://www.w3.org/1999/xlink" x="0px" y="0px"
	 viewBox="0 0 726.43 768" style="enable-background:new 0 0 726.43 768;" xml:space="preserve">
<style type="text/css">
	.st0{fill:#231F20;}
</style>
<g>
	<g>
		<path class="st0" d="M363.22,12.13c-78.32,0-141.83,63.51-141.83,141.8c0,78.32,63.51,141.8,141.83,141.8
			c78.3,0,141.8-63.48,141.8-141.8C505.03,75.64,441.52,12.13,363.22,12.13z M363.22,234.72c-44.62,0-80.8-36.17-80.8-80.8
			c0-44.6,36.17-80.77,80.8-80.77c44.6,0,80.77,36.17,80.77,80.77C444,198.56,407.83,234.72,363.22,234.72z"/>
	</g>
	<g>
		<polygon class="st0" points="588.73,234.96 439.83,234.96 286.6,234.96 137.69,234.96 31.68,755.87 286.6,755.87 439.83,755.87 
			694.75,755.87 		"/>
	</g>
</g>
</svg>
