<?xml version="1.0" encoding="utf-8"?>
<!-- Generator: Adobe Illustrator 26.0.1, SVG Export Plug-In . SVG Version: 6.00 Build 0)  -->
<svg version="1.1" id="Ebene_1" xmlns="http://www.w3.org/2000/svg" xmlns:xlink="http://www.w3.org/1999/xlink" x="0px" y="0px"
	 viewBox="0 0 283.46 283.46" style="enable-background:new 0 0 283.46 283.46;" xml:space="preserve">
<style type="text/css">
	.st0{fill:#FFFFFF;}
</style>
<g>
	<rect x="0" y="0.46" class="st0" width="283" height="283"/>
	<path d="M9.13,274.34h9.13v-9.13H9.13V274.34 M18.26,274.34h9.13v-9.13h-9.13V274.34 M27.39,274.34h9.13v-9.13h-9.13V274.34
		 M36.52,274.34h9.13v-9.13h-9.13V274.34 M45.65,274.34h9.13v-9.13h-9.13V274.34 M54.77,274.34h9.13v-9.13h-9.13V274.34
		 M63.9,274.34h9.13v-9.13H63.9V274.34 M82.16,274.34h9.13v-9.13h-9.13V274.34 M91.29,274.34h9.13v-9.13h-9.13V274.34
		 M100.42,274.34h9.13v-9.13h-9.13V274.34 M127.81,274.34h9.13v-9.13h-9.13V274.34 M136.94,274.34h9.13v-9.13h-9.13V274.34
		 M155.19,274.34h9.13v-9.13h-9.13V274.34 M164.32,274.34h9.13v-9.13h-9.13V274.34 M182.58,274.34h9.13v-9.13h-9.13V274.34
		 M200.84,274.34h9.13v-9.13h-9.13V274.34 M209.97,274.34h9.13v-9.13h-9.13V274.34 M219.1,274.34h9.13v-9.13h-9.13V274.34
		 M228.23,274.34h9.13v-9.13h-9.13V274.34 M237.35,274.34h9.13v-9.13h-9.13V274.34 M246.48,274.34h9.13v-9.13h-9.13V274.34
		 M9.13,265.21h9.13v-9.13H9.13V265.21 M63.9,265.21h9.13v-9.13H63.9V265.21 M82.16,265.21h9.13v-9.13h-9.13V265.21 M91.29,265.21
		h9.13v-9.13h-9.13V265.21 M118.68,265.21h9.13v-9.13h-9.13V265.21 M136.94,265.21h9.13v-9.13h-9.13V265.21 M146.06,265.21h9.13
		v-9.13h-9.13V265.21 M191.71,265.21h9.13v-9.13h-9.13V265.21 M209.97,265.21h9.13v-9.13h-9.13V265.21 M219.1,265.21h9.13v-9.13
		h-9.13V265.21 M237.35,265.21h9.13v-9.13h-9.13V265.21 M255.61,265.21h9.13v-9.13h-9.13V265.21 M9.13,256.08h9.13v-9.13H9.13
		V256.08 M27.39,256.08h9.13v-9.13h-9.13V256.08 M36.52,256.08h9.13v-9.13h-9.13V256.08 M45.65,256.08h9.13v-9.13h-9.13V256.08
		 M63.9,256.08h9.13v-9.13H63.9V256.08 M82.16,256.08h9.13v-9.13h-9.13V256.08 M91.29,256.08h9.13v-9.13h-9.13V256.08
		 M118.68,256.08h9.13v-9.13h-9.13V256.08 M127.81,256.08h9.13v-9.13h-9.13V256.08 M146.06,256.08h9.13v-9.13h-9.13V256.08
		 M173.45,256.08h9.13v-9.13h-9.13V256.08 M182.58,256.08h9.13v-9.13h-9.13V256.08 M191.71,256.08h9.13v-9.13h-9.13V256.08
		 M200.84,256.08h9.13v-9.13h-9.13V256.08 M209.97,256.08h9.13v-9.13h-9.13V256.08 M219.1,256.08h9.13v-9.13h-9.13V256.08
		 M228.23,256.08h9.13v-9.13h-9.13V256.08 M237.35,256.08h9.13v-9.13h-9.13V256.08 M246.48,256.08h9.13v-9.13h-9.13V256.08
		 M255.61,256.08h9.13v-9.13h-9.13V256.08 M9.13,246.95h9.13v-9.13H9.13V246.95 M27.39,246.95h9.13v-9.13h-9.13V246.95
		 M36.52,246.95h9.13v-9.13h-9.13V246.95 M45.65,246.95h9.13v-9.13h-9.13V246.95 M63.9,246.95h9.13v-9.13H63.9V246.95 M82.16,246.95
		h9.13v-9.13h-9.13V246.95 M91.29,246.95h9.13v-9.13h-9.13V246.95 M109.55,246.95h9.13v-9.13h-9.13V246.95 M136.94,246.95h9.13
		v-9.13h-9.13V246.95 M164.32,246.95h9.13v-9.13h-9.13V246.95 M173.45,246.95h9.13v-9.13h-9.13V246.95 M182.58,246.95h9.13v-9.13
		h-9.13V246.95 M191.71,246.95h9.13v-9.13h-9.13V246.95 M219.1,246.95h9.13v-9.13h-9.13V246.95 M237.35,246.95h9.13v-9.13h-9.13
		V246.95 M246.48,246.95h9.13v-9.13h-9.13V246.95 M255.61,246.95h9.13v-9.13h-9.13V246.95 M264.74,246.95h9.13v-9.13h-9.13V246.95
		 M9.13,237.82h9.13v-9.13H9.13V237.82 M27.39,237.82h9.13v-9.13h-9.13V237.82 M36.52,237.82h9.13v-9.13h-9.13V237.82 M45.65,237.82
		h9.13v-9.13h-9.13V237.82 M63.9,237.82h9.13v-9.13H63.9V237.82 M82.16,237.82h9.13v-9.13h-9.13V237.82 M91.29,237.82h9.13v-9.13
		h-9.13V237.82 M100.42,237.82h9.13v-9.13h-9.13V237.82 M109.55,237.82h9.13v-9.13h-9.13V237.82 M127.81,237.82h9.13v-9.13h-9.13
		V237.82 M136.94,237.82h9.13v-9.13h-9.13V237.82 M164.32,237.82h9.13v-9.13h-9.13V237.82 M191.71,237.82h9.13v-9.13h-9.13V237.82
		 M200.84,237.82h9.13v-9.13h-9.13V237.82 M209.97,237.82h9.13v-9.13h-9.13V237.82 M219.1,237.82h9.13v-9.13h-9.13V237.82
		 M228.23,237.82h9.13v-9.13h-9.13V237.82 M246.48,237.82h9.13v-9.13h-9.13V237.82 M264.74,237.82h9.13v-9.13h-9.13V237.82
		 M9.13,228.69h9.13v-9.13H9.13V228.69 M63.9,228.69h9.13v-9.13H63.9V228.69 M91.29,228.69h9.13v-9.13h-9.13V228.69 M100.42,228.69
		h9.13v-9.13h-9.13V228.69 M118.68,228.69h9.13v-9.13h-9.13V228.69 M136.94,228.69h9.13v-9.13h-9.13V228.69 M155.19,228.69h9.13
		v-9.13h-9.13V228.69 M173.45,228.69h9.13v-9.13h-9.13V228.69 M182.58,228.69h9.13v-9.13h-9.13V228.69 M191.71,228.69h9.13v-9.13
		h-9.13V228.69 M228.23,228.69h9.13v-9.13h-9.13V228.69 M9.13,219.56h9.13v-9.13H9.13V219.56 M18.26,219.56h9.13v-9.13h-9.13V219.56
		 M27.39,219.56h9.13v-9.13h-9.13V219.56 M36.52,219.56h9.13v-9.13h-9.13V219.56 M45.65,219.56h9.13v-9.13h-9.13V219.56
		 M54.77,219.56h9.13v-9.13h-9.13V219.56 M63.9,219.56h9.13v-9.13H63.9V219.56 M82.16,219.56h9.13v-9.13h-9.13V219.56
		 M100.42,219.56h9.13v-9.13h-9.13V219.56 M118.68,219.56h9.13v-9.13h-9.13V219.56 M146.06,219.56h9.13v-9.13h-9.13V219.56
		 M155.19,219.56h9.13v-9.13h-9.13V219.56 M164.32,219.56h9.13v-9.13h-9.13V219.56 M173.45,219.56h9.13v-9.13h-9.13V219.56
		 M182.58,219.56h9.13v-9.13h-9.13V219.56 M191.71,219.56h9.13v-9.13h-9.13V219.56 M209.97,219.56h9.13v-9.13h-9.13V219.56
		 M228.23,219.56h9.13v-9.13h-9.13V219.56 M237.35,219.56h9.13v-9.13h-9.13V219.56 M246.48,219.56h9.13v-9.13h-9.13V219.56
		 M82.16,210.43h9.13v-9.13h-9.13V210.43 M91.29,210.43h9.13v-9.13h-9.13V210.43 M100.42,210.43h9.13v-9.13h-9.13V210.43
		 M118.68,210.43h9.13v-9.13h-9.13V210.43 M155.19,210.43h9.13v-9.13h-9.13V210.43 M182.58,210.43h9.13v-9.13h-9.13V210.43
		 M191.71,210.43h9.13v-9.13h-9.13V210.43 M228.23,210.43h9.13v-9.13h-9.13V210.43 M237.35,210.43h9.13v-9.13h-9.13V210.43
		 M246.48,210.43h9.13v-9.13h-9.13V210.43 M255.61,210.43h9.13v-9.13h-9.13V210.43 M264.74,210.43h9.13v-9.13h-9.13V210.43
		 M9.13,201.3h9.13v-9.13H9.13V201.3 M27.39,201.3h9.13v-9.13h-9.13V201.3 M63.9,201.3h9.13v-9.13H63.9V201.3 M82.16,201.3h9.13
		v-9.13h-9.13V201.3 M91.29,201.3h9.13v-9.13h-9.13V201.3 M100.42,201.3h9.13v-9.13h-9.13V201.3 M109.55,201.3h9.13v-9.13h-9.13
		V201.3 M118.68,201.3h9.13v-9.13h-9.13V201.3 M127.81,201.3h9.13v-9.13h-9.13V201.3 M136.94,201.3h9.13v-9.13h-9.13V201.3
		 M146.06,201.3h9.13v-9.13h-9.13V201.3 M164.32,201.3h9.13v-9.13h-9.13V201.3 M191.71,201.3h9.13v-9.13h-9.13V201.3 M200.84,201.3
		h9.13v-9.13h-9.13V201.3 M209.97,201.3h9.13v-9.13h-9.13V201.3 M219.1,201.3h9.13v-9.13h-9.13V201.3 M228.23,201.3h9.13v-9.13
		h-9.13V201.3 M246.48,201.3h9.13v-9.13h-9.13V201.3 M255.61,201.3h9.13v-9.13h-9.13V201.3 M264.74,201.3h9.13v-9.13h-9.13V201.3
		 M9.13,192.17h9.13v-9.13H9.13V192.17 M27.39,192.17h9.13v-9.13h-9.13V192.17 M73.03,192.17h9.13v-9.13h-9.13V192.17 M82.16,192.17
		h9.13v-9.13h-9.13V192.17 M91.29,192.17h9.13v-9.13h-9.13V192.17 M109.55,192.17h9.13v-9.13h-9.13V192.17 M146.06,192.17h9.13
		v-9.13h-9.13V192.17 M155.19,192.17h9.13v-9.13h-9.13V192.17 M173.45,192.17h9.13v-9.13h-9.13V192.17 M182.58,192.17h9.13v-9.13
		h-9.13V192.17 M209.97,192.17h9.13v-9.13h-9.13V192.17 M219.1,192.17h9.13v-9.13h-9.13V192.17 M228.23,192.17h9.13v-9.13h-9.13
		V192.17 M255.61,192.17h9.13v-9.13h-9.13V192.17 M9.13,183.05h9.13v-9.13H9.13V183.05 M36.52,183.05h9.13v-9.13h-9.13V183.05
		 M45.65,183.05h9.13v-9.13h-9.13V183.05 M54.77,183.05h9.13v-9.13h-9.13V183.05 M63.9,183.05h9.13v-9.13H63.9V183.05 M73.03,183.05
		h9.13v-9.13h-9.13V183.05 M82.16,183.05h9.13v-9.13h-9.13V183.05 M91.29,183.05h9.13v-9.13h-9.13V183.05 M109.55,183.05h9.13v-9.13
		h-9.13V183.05 M118.68,183.05h9.13v-9.13h-9.13V183.05 M127.81,183.05h9.13v-9.13h-9.13V183.05 M136.94,183.05h9.13v-9.13h-9.13
		V183.05 M146.06,183.05h9.13v-9.13h-9.13V183.05 M209.97,183.05h9.13v-9.13h-9.13V183.05 M219.1,183.05h9.13v-9.13h-9.13V183.05
		 M246.48,183.05h9.13v-9.13h-9.13V183.05 M9.13,173.92h9.13v-9.13H9.13V173.92 M18.26,173.92h9.13v-9.13h-9.13V173.92
		 M27.39,173.92h9.13v-9.13h-9.13V173.92 M45.65,173.92h9.13v-9.13h-9.13V173.92 M54.77,173.92h9.13v-9.13h-9.13V173.92
		 M73.03,173.92h9.13v-9.13h-9.13V173.92 M91.29,173.92h9.13v-9.13h-9.13V173.92 M100.42,173.92h9.13v-9.13h-9.13V173.92
		 M127.81,173.92h9.13v-9.13h-9.13V173.92 M155.19,173.92h9.13v-9.13h-9.13V173.92 M182.58,173.92h9.13v-9.13h-9.13V173.92
		 M200.84,173.92h9.13v-9.13h-9.13V173.92 M209.97,173.92h9.13v-9.13h-9.13V173.92 M219.1,173.92h9.13v-9.13h-9.13V173.92
		 M228.23,173.92h9.13v-9.13h-9.13V173.92 M246.48,173.92h9.13v-9.13h-9.13V173.92 M264.74,173.92h9.13v-9.13h-9.13V173.92
		 M9.13,164.79h9.13v-9.13H9.13V164.79 M27.39,164.79h9.13v-9.13h-9.13V164.79 M36.52,164.79h9.13v-9.13h-9.13V164.79 M54.77,164.79
		h9.13v-9.13h-9.13V164.79 M63.9,164.79h9.13v-9.13H63.9V164.79 M73.03,164.79h9.13v-9.13h-9.13V164.79 M82.16,164.79h9.13v-9.13
		h-9.13V164.79 M91.29,164.79h9.13v-9.13h-9.13V164.79 M118.68,164.79h9.13v-9.13h-9.13V164.79 M127.81,164.79h9.13v-9.13h-9.13
		V164.79 M164.32,164.79h9.13v-9.13h-9.13V164.79 M182.58,164.79h9.13v-9.13h-9.13V164.79 M219.1,164.79h9.13v-9.13h-9.13V164.79
		 M237.35,164.79h9.13v-9.13h-9.13V164.79 M246.48,164.79h9.13v-9.13h-9.13V164.79 M9.13,155.66h9.13v-9.13H9.13V155.66
		 M18.26,155.66h9.13v-9.13h-9.13V155.66 M27.39,155.66h9.13v-9.13h-9.13V155.66 M36.52,155.66h9.13v-9.13h-9.13V155.66
		 M45.65,155.66h9.13v-9.13h-9.13V155.66 M73.03,155.66h9.13v-9.13h-9.13V155.66 M118.68,155.66h9.13v-9.13h-9.13V155.66
		 M136.94,155.66h9.13v-9.13h-9.13V155.66 M155.19,155.66h9.13v-9.13h-9.13V155.66 M182.58,155.66h9.13v-9.13h-9.13V155.66
		 M191.71,155.66h9.13v-9.13h-9.13V155.66 M200.84,155.66h9.13v-9.13h-9.13V155.66 M219.1,155.66h9.13v-9.13h-9.13V155.66
		 M228.23,155.66h9.13v-9.13h-9.13V155.66 M255.61,155.66h9.13v-9.13h-9.13V155.66 M27.39,146.53h9.13v-9.13h-9.13V146.53
		 M54.77,146.53h9.13v-9.13h-9.13V146.53 M63.9,146.53h9.13v-9.13H63.9V146.53 M73.03,146.53h9.13v-9.13h-9.13V146.53
		 M100.42,146.53h9.13v-9.13h-9.13V146.53 M127.81,146.53h9.13v-9.13h-9.13V146.53 M146.06,146.53h9.13v-9.13h-9.13V146.53
		 M155.19,146.53h9.13v-9.13h-9.13V146.53 M173.45,146.53h9.13v-9.13h-9.13V146.53 M200.84,146.53h9.13v-9.13h-9.13V146.53
		 M219.1,146.53h9.13v-9.13h-9.13V146.53 M237.35,146.53h9.13v-9.13h-9.13V146.53 M246.48,146.53h9.13v-9.13h-9.13V146.53
		 M18.26,137.4h9.13v-9.13h-9.13V137.4 M27.39,137.4h9.13v-9.13h-9.13V137.4 M36.52,137.4h9.13v-9.13h-9.13V137.4 M45.65,137.4h9.13
		v-9.13h-9.13V137.4 M54.77,137.4h9.13v-9.13h-9.13V137.4 M100.42,137.4h9.13v-9.13h-9.13V137.4 M118.68,137.4h9.13v-9.13h-9.13
		V137.4 M136.94,137.4h9.13v-9.13h-9.13V137.4 M155.19,137.4h9.13v-9.13h-9.13V137.4 M173.45,137.4h9.13v-9.13h-9.13V137.4
		 M182.58,137.4h9.13v-9.13h-9.13V137.4 M191.71,137.4h9.13v-9.13h-9.13V137.4 M209.97,137.4h9.13v-9.13h-9.13V137.4 M228.23,137.4
		h9.13v-9.13h-9.13V137.4 M264.74,137.4h9.13v-9.13h-9.13V137.4 M27.39,128.27h9.13v-9.13h-9.13V128.27 M36.52,128.27h9.13v-9.13
		h-9.13V128.27 M45.65,128.27h9.13v-9.13h-9.13V128.27 M63.9,128.27h9.13v-9.13H63.9V128.27 M91.29,128.27h9.13v-9.13h-9.13V128.27
		 M109.55,128.27h9.13v-9.13h-9.13V128.27 M127.81,128.27h9.13v-9.13h-9.13V128.27 M136.94,128.27h9.13v-9.13h-9.13V128.27
		 M146.06,128.27h9.13v-9.13h-9.13V128.27 M155.19,128.27h9.13v-9.13h-9.13V128.27 M164.32,128.27h9.13v-9.13h-9.13V128.27
		 M237.35,128.27h9.13v-9.13h-9.13V128.27 M246.48,128.27h9.13v-9.13h-9.13V128.27 M18.26,119.14h9.13v-9.13h-9.13V119.14
		 M36.52,119.14h9.13v-9.13h-9.13V119.14 M45.65,119.14h9.13v-9.13h-9.13V119.14 M82.16,119.14h9.13v-9.13h-9.13V119.14
		 M91.29,119.14h9.13v-9.13h-9.13V119.14 M100.42,119.14h9.13v-9.13h-9.13V119.14 M109.55,119.14h9.13v-9.13h-9.13V119.14
		 M155.19,119.14h9.13v-9.13h-9.13V119.14 M182.58,119.14h9.13v-9.13h-9.13V119.14 M219.1,119.14h9.13v-9.13h-9.13V119.14
		 M237.35,119.14h9.13v-9.13h-9.13V119.14 M255.61,119.14h9.13v-9.13h-9.13V119.14 M18.26,110.01h9.13v-9.13h-9.13V110.01
		 M27.39,110.01h9.13v-9.13h-9.13V110.01 M45.65,110.01h9.13v-9.13h-9.13V110.01 M54.77,110.01h9.13v-9.13h-9.13V110.01
		 M63.9,110.01h9.13v-9.13H63.9V110.01 M91.29,110.01h9.13v-9.13h-9.13V110.01 M109.55,110.01h9.13v-9.13h-9.13V110.01
		 M118.68,110.01h9.13v-9.13h-9.13V110.01 M136.94,110.01h9.13v-9.13h-9.13V110.01 M146.06,110.01h9.13v-9.13h-9.13V110.01
		 M155.19,110.01h9.13v-9.13h-9.13V110.01 M191.71,110.01h9.13v-9.13h-9.13V110.01 M18.26,100.88h9.13v-9.13h-9.13V100.88
		 M73.03,100.88h9.13v-9.13h-9.13V100.88 M82.16,100.88h9.13v-9.13h-9.13V100.88 M91.29,100.88h9.13v-9.13h-9.13V100.88
		 M155.19,100.88h9.13v-9.13h-9.13V100.88 M164.32,100.88h9.13v-9.13h-9.13V100.88 M173.45,100.88h9.13v-9.13h-9.13V100.88
		 M182.58,100.88h9.13v-9.13h-9.13V100.88 M191.71,100.88h9.13v-9.13h-9.13V100.88 M209.97,100.88h9.13v-9.13h-9.13V100.88
		 M219.1,100.88h9.13v-9.13h-9.13V100.88 M228.23,100.88h9.13v-9.13h-9.13V100.88 M264.74,100.88h9.13v-9.13h-9.13V100.88
		 M9.13,91.75h9.13v-9.13H9.13V91.75 M18.26,91.75h9.13v-9.13h-9.13V91.75 M27.39,91.75h9.13v-9.13h-9.13V91.75 M36.52,91.75h9.13
		v-9.13h-9.13V91.75 M45.65,91.75h9.13v-9.13h-9.13V91.75 M63.9,91.75h9.13v-9.13H63.9V91.75 M73.03,91.75h9.13v-9.13h-9.13V91.75
		 M82.16,91.75h9.13v-9.13h-9.13V91.75 M91.29,91.75h9.13v-9.13h-9.13V91.75 M100.42,91.75h9.13v-9.13h-9.13V91.75 M118.68,91.75
		h9.13v-9.13h-9.13V91.75 M127.81,91.75h9.13v-9.13h-9.13V91.75 M136.94,91.75h9.13v-9.13h-9.13V91.75 M164.32,91.75h9.13v-9.13
		h-9.13V91.75 M182.58,91.75h9.13v-9.13h-9.13V91.75 M200.84,91.75h9.13v-9.13h-9.13V91.75 M219.1,91.75h9.13v-9.13h-9.13V91.75
		 M237.35,91.75h9.13v-9.13h-9.13V91.75 M255.61,91.75h9.13v-9.13h-9.13V91.75 M118.68,82.63h9.13V73.5h-9.13V82.63 M136.94,82.63
		h9.13V73.5h-9.13V82.63 M155.19,82.63h9.13V73.5h-9.13V82.63 M182.58,82.63h9.13V73.5h-9.13V82.63 M191.71,82.63h9.13V73.5h-9.13
		V82.63 M9.13,73.5h9.13v-9.13H9.13V73.5 M18.26,73.5h9.13v-9.13h-9.13V73.5 M27.39,73.5h9.13v-9.13h-9.13V73.5 M36.52,73.5h9.13
		v-9.13h-9.13V73.5 M45.65,73.5h9.13v-9.13h-9.13V73.5 M54.77,73.5h9.13v-9.13h-9.13V73.5 M63.9,73.5h9.13v-9.13H63.9V73.5
		 M82.16,73.5h9.13v-9.13h-9.13V73.5 M100.42,73.5h9.13v-9.13h-9.13V73.5 M118.68,73.5h9.13v-9.13h-9.13V73.5 M136.94,73.5h9.13
		v-9.13h-9.13V73.5 M155.19,73.5h9.13v-9.13h-9.13V73.5 M173.45,73.5h9.13v-9.13h-9.13V73.5 M191.71,73.5h9.13v-9.13h-9.13V73.5
		 M209.97,73.5h9.13v-9.13h-9.13V73.5 M219.1,73.5h9.13v-9.13h-9.13V73.5 M228.23,73.5h9.13v-9.13h-9.13V73.5 M237.35,73.5h9.13
		v-9.13h-9.13V73.5 M246.48,73.5h9.13v-9.13h-9.13V73.5 M255.61,73.5h9.13v-9.13h-9.13V73.5 M264.74,73.5h9.13v-9.13h-9.13V73.5
		 M9.13,64.37h9.13v-9.13H9.13V64.37 M63.9,64.37h9.13v-9.13H63.9V64.37 M82.16,64.37h9.13v-9.13h-9.13V64.37 M100.42,64.37h9.13
		v-9.13h-9.13V64.37 M146.06,64.37h9.13v-9.13h-9.13V64.37 M164.32,64.37h9.13v-9.13h-9.13V64.37 M173.45,64.37h9.13v-9.13h-9.13
		V64.37 M191.71,64.37h9.13v-9.13h-9.13V64.37 M209.97,64.37h9.13v-9.13h-9.13V64.37 M264.74,64.37h9.13v-9.13h-9.13V64.37
		 M9.13,55.24h9.13v-9.13H9.13V55.24 M27.39,55.24h9.13v-9.13h-9.13V55.24 M36.52,55.24h9.13v-9.13h-9.13V55.24 M45.65,55.24h9.13
		v-9.13h-9.13V55.24 M63.9,55.24h9.13v-9.13H63.9V55.24 M100.42,55.24h9.13v-9.13h-9.13V55.24 M118.68,55.24h9.13v-9.13h-9.13V55.24
		 M155.19,55.24h9.13v-9.13h-9.13V55.24 M182.58,55.24h9.13v-9.13h-9.13V55.24 M191.71,55.24h9.13v-9.13h-9.13V55.24 M209.97,55.24
		h9.13v-9.13h-9.13V55.24 M228.23,55.24h9.13v-9.13h-9.13V55.24 M237.35,55.24h9.13v-9.13h-9.13V55.24 M246.48,55.24h9.13v-9.13
		h-9.13V55.24 M264.74,55.24h9.13v-9.13h-9.13V55.24 M9.13,46.11h9.13v-9.13H9.13V46.11 M27.39,46.11h9.13v-9.13h-9.13V46.11
		 M36.52,46.11h9.13v-9.13h-9.13V46.11 M45.65,46.11h9.13v-9.13h-9.13V46.11 M63.9,46.11h9.13v-9.13H63.9V46.11 M82.16,46.11h9.13
		v-9.13h-9.13V46.11 M91.29,46.11h9.13v-9.13h-9.13V46.11 M109.55,46.11h9.13v-9.13h-9.13V46.11 M127.81,46.11h9.13v-9.13h-9.13
		V46.11 M136.94,46.11h9.13v-9.13h-9.13V46.11 M164.32,46.11h9.13v-9.13h-9.13V46.11 M182.58,46.11h9.13v-9.13h-9.13V46.11
		 M209.97,46.11h9.13v-9.13h-9.13V46.11 M228.23,46.11h9.13v-9.13h-9.13V46.11 M237.35,46.11h9.13v-9.13h-9.13V46.11 M246.48,46.11
		h9.13v-9.13h-9.13V46.11 M264.74,46.11h9.13v-9.13h-9.13V46.11 M9.13,36.98h9.13v-9.13H9.13V36.98 M27.39,36.98h9.13v-9.13h-9.13
		V36.98 M36.52,36.98h9.13v-9.13h-9.13V36.98 M45.65,36.98h9.13v-9.13h-9.13V36.98 M63.9,36.98h9.13v-9.13H63.9V36.98 M91.29,36.98
		h9.13v-9.13h-9.13V36.98 M100.42,36.98h9.13v-9.13h-9.13V36.98 M109.55,36.98h9.13v-9.13h-9.13V36.98 M136.94,36.98h9.13v-9.13
		h-9.13V36.98 M146.06,36.98h9.13v-9.13h-9.13V36.98 M155.19,36.98h9.13v-9.13h-9.13V36.98 M191.71,36.98h9.13v-9.13h-9.13V36.98
		 M209.97,36.98h9.13v-9.13h-9.13V36.98 M228.23,36.98h9.13v-9.13h-9.13V36.98 M237.35,36.98h9.13v-9.13h-9.13V36.98 M246.48,36.98
		h9.13v-9.13h-9.13V36.98 M264.74,36.98h9.13v-9.13h-9.13V36.98 M9.13,27.85h9.13v-9.13H9.13V27.85 M63.9,27.85h9.13v-9.13H63.9
		V27.85 M82.16,27.85h9.13v-9.13h-9.13V27.85 M91.29,27.85h9.13v-9.13h-9.13V27.85 M109.55,27.85h9.13v-9.13h-9.13V27.85
		 M118.68,27.85h9.13v-9.13h-9.13V27.85 M127.81,27.85h9.13v-9.13h-9.13V27.85 M136.94,27.85h9.13v-9.13h-9.13V27.85 M146.06,27.85
		h9.13v-9.13h-9.13V27.85 M164.32,27.85h9.13v-9.13h-9.13V27.85 M191.71,27.85h9.13v-9.13h-9.13V27.85 M209.97,27.85h9.13v-9.13
		h-9.13V27.85 M264.74,27.85h9.13v-9.13h-9.13V27.85 M9.13,18.72h9.13V9.59H9.13V18.72 M18.26,18.72h9.13V9.59h-9.13V18.72
		 M27.39,18.72h9.13V9.59h-9.13V18.72 M36.52,18.72h9.13V9.59h-9.13V18.72 M45.65,18.72h9.13V9.59h-9.13V18.72 M54.77,18.72h9.13
		V9.59h-9.13V18.72 M63.9,18.72h9.13V9.59H63.9V18.72 M91.29,18.72h9.13V9.59h-9.13V18.72 M127.81,18.72h9.13V9.59h-9.13V18.72
		 M155.19,18.72h9.13V9.59h-9.13V18.72 M164.32,18.72h9.13V9.59h-9.13V18.72 M173.45,18.72h9.13V9.59h-9.13V18.72 M182.58,18.72
		h9.13V9.59h-9.13V18.72 M209.97,18.72h9.13V9.59h-9.13V18.72 M219.1,18.72h9.13V9.59h-9.13V18.72 M228.23,18.72h9.13V9.59h-9.13
		V18.72 M237.35,18.72h9.13V9.59h-9.13V18.72 M246.48,18.72h9.13V9.59h-9.13V18.72 M255.61,18.72h9.13V9.59h-9.13V18.72
		 M264.74,18.72h9.13V9.59h-9.13V18.72L264.74,18.72z"/>
</g>
</svg>
