<?xml version="1.0" encoding="utf-8"?>
<!-- Generator: Adobe Illustrator 26.0.1, SVG Export Plug-In . SVG Version: 6.00 Build 0)  -->
<svg version="1.1" id="Ebene_1" xmlns="http://www.w3.org/2000/svg" xmlns:xlink="http://www.w3.org/1999/xlink" x="0px" y="0px"
	 viewBox="0 0 57.71 57.71" style="enable-background:new 0 0 57.71 57.71;" xml:space="preserve">
<style type="text/css">
	.st0{clip-path:url(#XMLID_00000000927565682857233820000017109265116938807964_);fill:#FFFFFF;}
	
		.st1{clip-path:url(#XMLID_00000000927565682857233820000017109265116938807964_);fill:none;stroke:#FFFFFF;stroke-width:2;stroke-linejoin:round;}
</style>
<g>
	<defs>
		<rect id="XMLID_1_" x="0.58" y="0.5" width="56.69" height="56.69"/>
	</defs>
	<use xlink:href="#XMLID_1_"  style="overflow:visible;fill-rule:evenodd;clip-rule:evenodd;"/>
	<clipPath id="XMLID_00000074407087904017028740000008081687478320885377_">
		<use xlink:href="#XMLID_1_"  style="overflow:visible;"/>
	</clipPath>
	<path style="clip-path:url(#XMLID_00000074407087904017028740000008081687478320885377_);fill:#FFFFFF;" d="M12.55,12.78
		c0-3.73,3.02-6.75,6.74-6.75c3.72,0,6.74,3.02,6.74,6.75c0,3.73-3.02,6.75-6.74,6.75C15.57,19.53,12.55,16.51,12.55,12.78z"/>
	<path style="clip-path:url(#XMLID_00000074407087904017028740000008081687478320885377_);fill:#FFFFFF;" d="M38.03,23.56l6.01-7.45
		c3.69-0.02,7.27,1.98,9.64,4.38L45.49,32.9c-1.9-1.83-7.54-3.8-7.54-3.8C41.23,26.09,38.16,23.58,38.03,23.56"/>
	<path style="clip-path:url(#XMLID_00000074407087904017028740000008081687478320885377_);fill:#FFFFFF;" d="M37.38,23.15
		c-2.99-2.42-4.96,1.62-4.96,1.62c-2.33-1.48-5.76-2.5-8.18-2.67l9.2-12.16c6.11,1.63,8.95,3.03,9.95,5.82"/>
	<path style="clip-path:url(#XMLID_00000074407087904017028740000008081687478320885377_);fill:#FFFFFF;" d="M10.26,28
		c0.58-2.21,2.93-5.78,4.42-6.96c1.62-1.29,6.48-1.94,8.55,0.44c2.08,2.38,5.31,6,5.31,6c0.73,0.82,1.89,0.79,2.58-0.05l2.93-3.54
		c0.7-0.84,1.93-0.93,2.75-0.21l1.1,0.99c0.82,0.73,0.94,2.03,0.29,2.91l-5.79,7.7c-0.66,0.87-1.96,1.12-2.89,0.56l-7.25-4.4
		c-0.93-0.57-0.94-0.56-0.01,0.01l1.75,1.08c0.93,0.57,1.69,1.93,1.69,3.02l-0.01,13.16c0,1.09-0.83,1.65-1.84,1.25L9.66,44.27
		c-1.01-0.41-1.71-1.62-1.56-2.7C8.1,41.57,9.79,29.8,10.26,28z"/>
	
		<polyline style="clip-path:url(#XMLID_00000074407087904017028740000008081687478320885377_);fill:none;stroke:#FFFFFF;stroke-width:2;stroke-linejoin:round;" points="
		23.76,57.43 23.76,49.92 9.88,43.36 9.88,57.71 	"/>
</g>
</svg>
